<svg xmlns="http://www.w3.org/2000/svg" viewBox="0 0 177.55 176.9"><defs><style>.cls-1{fill:#1c75bc;}</style></defs><g id="Layer_2" data-name="Layer 2"><g id="Layer_1-2" data-name="Layer 1"><path class="cls-1" d="M100.86,145.29c5.29,8.1,8.5,16.73,7.85,26.55-.06,1.17-.1,2.32-.13,3.49a88.15,88.15,0,0,1-9,1.57,30.78,30.78,0,0,0,.42-3.74c.4-7.81-2.14-14.7-6.59-21-4.15-5.89-9.45-10.6-15.19-14.87-8.06-6-15.45-12.71-21.39-20.87a34.15,34.15,0,0,1-6.33-13.28A21.44,21.44,0,0,1,50.29,97a2,2,0,0,0-1.15.71,53.45,53.45,0,0,0-11.58,15.53c-4.6,9.43-5.48,19.12-1.76,29.05,2.73,7.39,7.39,13.5,13,18.92,4.11,4,8.28,7.87,12.32,11.9A88.78,88.78,0,0,1,88.63,0a2.2,2.2,0,0,0-1.24.57,107.07,107.07,0,0,0-15.85,13.6A81.71,81.71,0,0,0,55.07,38c-5,11.27-6.26,22.91-3.21,34.92a64.92,64.92,0,0,0,11.9,23.77c6.72,8.69,13.67,17.21,20.47,25.86C90.05,129.9,95.69,137.41,100.86,145.29Z"/><path class="cls-1" d="M177.55,88.76a88.78,88.78,0,0,1-61.22,84.42A83.64,83.64,0,0,0,137,148.41a56.4,56.4,0,0,0,7-24.58,57.28,57.28,0,0,0-4-23.39c-4.5-11.79-11.72-21.86-20.26-31A203.64,203.64,0,0,1,96.15,39c-4-6.38-7.46-13-9.49-20.28C85.43,14.26,84.82,9.8,86,5.26A15.54,15.54,0,0,1,88.65,0h.13A88.76,88.76,0,0,1,177.55,88.76Z"/></g></g></svg>